HIERARCHY
ROOT Hips
{
  OFFSET -5.9847 93.0773 -38.5288
  CHANNELS 6 Xposition Yposition Zposition Zrotation Xrotation Yrotation
  JOINT Spine
  {
    OFFSET 0 8 0
    CHANNELS 6 Xposition Yposition Zposition Zrotation Xrotation Yrotation
    JOINT Spine1
    {
      OFFSET 0 8 0
      CHANNELS 6 Xposition Yposition Zposition Zrotation Xrotation Yrotation
      JOINT Spine2
      {
        OFFSET 0 8 0
        CHANNELS 6 Xposition Yposition Zposition Zrotation Xrotation Yrotation
        JOINT Spine3
        {
          OFFSET 0 8 0
          CHANNELS 6 Xposition Yposition Zposition Zrotation Xrotation Yrotation
          JOINT Neck
          {
            OFFSET 0 17 0
            CHANNELS 6 Xposition Yposition Zposition Zrotation Xrotation Yrotation
            JOINT Head
            {
              OFFSET 0 10.8 0
              CHANNELS 6 Xposition Yposition Zposition Zrotation Xrotation Yrotation
              End Site
              {
                OFFSET 0 20.25 0
              }
            }
          }
          JOINT LeftShoulder
          {
            OFFSET 5 17 0
            CHANNELS 6 Xposition Yposition Zposition Zrotation Xrotation Yrotation
            JOINT LeftShoulder2
            {
              OFFSET 6.45 0 0
              CHANNELS 6 Xposition Yposition Zposition Zrotation Xrotation Yrotation
              JOINT LeftArm
              {
                OFFSET 6.45 0 0
                CHANNELS 6 Xposition Yposition Zposition Zrotation Xrotation Yrotation
                JOINT LeftForeArm
                {
                  OFFSET 0 -32.4 -2
                  CHANNELS 6 Xposition Yposition Zposition Zrotation Xrotation Yrotation
                  JOINT LeftHand
                  {
                    OFFSET 0 -25.65 2
                    CHANNELS 6 Xposition Yposition Zposition Zrotation Xrotation Yrotation
                    JOINT LeftHandThumb1
                    {
                      OFFSET -0.5 -1.5 2.65
                      CHANNELS 6 Xposition Yposition Zposition Zrotation Xrotation Yrotation
                      JOINT LeftHandThumb2
                      {
                        OFFSET 0 -3.8 3.7
                        CHANNELS 6 Xposition Yposition Zposition Zrotation Xrotation Yrotation
                        JOINT LeftHandThumb3
                        {
                          OFFSET 0 -3 2.7
                          CHANNELS 6 Xposition Yposition Zposition Zrotation Xrotation Yrotation
                          End Site
                          {
                            OFFSET 0 -2.3 1.8
                          }
                        }
                      }
                    }
                    JOINT LeftHandIndex
                    {
                      OFFSET 0 -1.9 1.6
                      CHANNELS 6 Xposition Yposition Zposition Zrotation Xrotation Yrotation
                      JOINT LeftHandIndex1
                      {
                        OFFSET 0 -8.3 1.9
                        CHANNELS 6 Xposition Yposition Zposition Zrotation Xrotation Yrotation
                        JOINT LeftHandIndex2
                        {
                          OFFSET 0 -4.5 0
                          CHANNELS 6 Xposition Yposition Zposition Zrotation Xrotation Yrotation
                          JOINT LeftHandIndex3
                          {
                            OFFSET 0 -3.4 0
                            CHANNELS 6 Xposition Yposition Zposition Zrotation Xrotation Yrotation
                            End Site
                            {
                              OFFSET 0 -2.6 0
                            }
                          }
                        }
                      }
                    }
                    JOINT LeftHandMiddle
                    {
                      OFFSET -0.25 -2.2 0.4
                      CHANNELS 6 Xposition Yposition Zposition Zrotation Xrotation Yrotation
                      JOINT LeftHandMiddle1
                      {
                        OFFSET 0 -8.3 1
                        CHANNELS 6 Xposition Yposition Zposition Zrotation Xrotation Yrotation
                        JOINT LeftHandMiddle2
                        {
                          OFFSET 0 -4.65 0
                          CHANNELS 6 Xposition Yposition Zposition Zrotation Xrotation Yrotation
                          JOINT LeftHandMiddle3
                          {
                            OFFSET 0 -3.3 0
                            CHANNELS 6 Xposition Yposition Zposition Zrotation Xrotation Yrotation
                            End Site
                            {
                              OFFSET 0 -2.7 0
                            }
                          }
                        }
                      }
                    }
                    JOINT LeftHandRing
                    {
                      OFFSET -0.5 -2.15 -0.8
                      CHANNELS 6 Xposition Yposition Zposition Zrotation Xrotation Yrotation
                      JOINT LeftHandRing1
                      {
                        OFFSET 0 -7.75 -0.2
                        CHANNELS 6 Xposition Yposition Zposition Zrotation Xrotation Yrotation
                        JOINT LeftHandRing2
                        {
                          OFFSET 0 -3.8 0
                          CHANNELS 6 Xposition Yposition Zposition Zrotation Xrotation Yrotation
                          JOINT LeftHandRing3
                          {
                            OFFSET 0 -3.4 0
                            CHANNELS 6 Xposition Yposition Zposition Zrotation Xrotation Yrotation
                            End Site
                            {
                              OFFSET 0 -2.6 0
                            }
                          }
                        }
                      }
                    }
                    JOINT LeftHandPinky
                    {
                      OFFSET -0.75 -1.75 -1.85
                      CHANNELS 6 Xposition Yposition Zposition Zrotation Xrotation Yrotation
                      JOINT LeftHandPinky1
                      {
                        OFFSET 0 -7.15 -1
                        CHANNELS 6 Xposition Yposition Zposition Zrotation Xrotation Yrotation
                        JOINT LeftHandPinky2
                        {
                          OFFSET 0 -3 0
                          CHANNELS 6 Xposition Yposition Zposition Zrotation Xrotation Yrotation
                          JOINT LeftHandPinky3
                          {
                            OFFSET 0 -2.35 0
                            CHANNELS 6 Xposition Yposition Zposition Zrotation Xrotation Yrotation
                            End Site
                            {
                              OFFSET 0 -2.1 0
                            }
                          }
                        }
                      }
                    }
                  }
                }
              }
            }
          }
          JOINT RightShoulder
          {
            OFFSET -5 17 0
            CHANNELS 6 Xposition Yposition Zposition Zrotation Xrotation Yrotation
            JOINT RightShoulder2
            {
              OFFSET -6.45 0 0
              CHANNELS 6 Xposition Yposition Zposition Zrotation Xrotation Yrotation
              JOINT RightArm
              {
                OFFSET -6.45 0 0
                CHANNELS 6 Xposition Yposition Zposition Zrotation Xrotation Yrotation
                JOINT RightForeArm
                {
                  OFFSET 0 -32.4 -2
                  CHANNELS 6 Xposition Yposition Zposition Zrotation Xrotation Yrotation
                  JOINT RightHand
                  {
                    OFFSET 0 -25.65 2
                    CHANNELS 6 Xposition Yposition Zposition Zrotation Xrotation Yrotation
                    JOINT RightHandThumb1
                    {
                      OFFSET 0.5 -1.5 2.65
                      CHANNELS 6 Xposition Yposition Zposition Zrotation Xrotation Yrotation
                      JOINT RightHandThumb2
                      {
                        OFFSET 0 -3.8 3.7
                        CHANNELS 6 Xposition Yposition Zposition Zrotation Xrotation Yrotation
                        JOINT RightHandThumb3
                        {
                          OFFSET 0 -3 2.7
                          CHANNELS 6 Xposition Yposition Zposition Zrotation Xrotation Yrotation
                          End Site
                          {
                            OFFSET 0 -2.3 1.8
                          }
                        }
                      }
                    }
                    JOINT RightHandIndex
                    {
                      OFFSET 0 -1.9 1.6
                      CHANNELS 6 Xposition Yposition Zposition Zrotation Xrotation Yrotation
                      JOINT RightHandIndex1
                      {
                        OFFSET 0 -8.3 1.9
                        CHANNELS 6 Xposition Yposition Zposition Zrotation Xrotation Yrotation
                        JOINT RightHandIndex2
                        {
                          OFFSET 0 -4.5 0
                          CHANNELS 6 Xposition Yposition Zposition Zrotation Xrotation Yrotation
                          JOINT RightHandIndex3
                          {
                            OFFSET 0 -3.4 0
                            CHANNELS 6 Xposition Yposition Zposition Zrotation Xrotation Yrotation
                            End Site
                            {
                              OFFSET 0 -2.6 0
                            }
                          }
                        }
                      }
                    }
                    JOINT RightHandMiddle
                    {
                      OFFSET 0.25 -2.2 0.4
                      CHANNELS 6 Xposition Yposition Zposition Zrotation Xrotation Yrotation
                      JOINT RightHandMiddle1
                      {
                        OFFSET 0 -8.3 1
                        CHANNELS 6 Xposition Yposition Zposition Zrotation Xrotation Yrotation
                        JOINT RightHandMiddle2
                        {
                          OFFSET 0 -4.65 0
                          CHANNELS 6 Xposition Yposition Zposition Zrotation Xrotation Yrotation
                          JOINT RightHandMiddle3
                          {
                            OFFSET 0 -3.3 0
                            CHANNELS 6 Xposition Yposition Zposition Zrotation Xrotation Yrotation
                            End Site
                            {
                              OFFSET 0 -2.7 0
                            }
                          }
                        }
                      }
                    }
                    JOINT RightHandRing
                    {
                      OFFSET 0.5 -2.15 -0.8
                      CHANNELS 6 Xposition Yposition Zposition Zrotation Xrotation Yrotation
                      JOINT RightHandRing1
                      {
                        OFFSET 0 -7.75 -0.2
                        CHANNELS 6 Xposition Yposition Zposition Zrotation Xrotation Yrotation
                        JOINT RightHandRing2
                        {
                          OFFSET 0 -3.8 0
                          CHANNELS 6 Xposition Yposition Zposition Zrotation Xrotation Yrotation
                          JOINT RightHandRing3
                          {
                            OFFSET 0 -3.4 0
                            CHANNELS 6 Xposition Yposition Zposition Zrotation Xrotation Yrotation
                            End Site
                            {
                              OFFSET 0 -2.6 0
                            }
                          }
                        }
                      }
                    }
                    JOINT RightHandPinky
                    {
                      OFFSET 0.75 -1.75 -1.85
                      CHANNELS 6 Xposition Yposition Zposition Zrotation Xrotation Yrotation
                      JOINT RightHandPinky1
                      {
                        OFFSET 0 -7.15 -1
                        CHANNELS 6 Xposition Yposition Zposition Zrotation Xrotation Yrotation
                        JOINT RightHandPinky2
                        {
                          OFFSET 0 -3 0
                          CHANNELS 6 Xposition Yposition Zposition Zrotation Xrotation Yrotation
                          JOINT RightHandPinky3
                          {
                            OFFSET 0 -2.35 0
                            CHANNELS 6 Xposition Yposition Zposition Zrotation Xrotation Yrotation
                            End Site
                            {
                              OFFSET 0 -2.1 0
                            }
                          }
                        }
                      }
                    }
                  }
                }
              }
            }
          }
        }
      }
    }
  }
  JOINT LeftUpLeg
  {
    OFFSET 8 0 0
    CHANNELS 6 Xposition Yposition Zposition Zrotation Xrotation Yrotation
    JOINT LeftLeg
    {
      OFFSET 0 -45 -1
      CHANNELS 6 Xposition Yposition Zposition Zrotation Xrotation Yrotation
      JOINT LeftFoot
      {
        OFFSET 0 -41 -2
        CHANNELS 6 Xposition Yposition Zposition Zrotation Xrotation Yrotation
        JOINT LeftToeBase
        {
          OFFSET 0 -7.5 12.5
          CHANNELS 6 Xposition Yposition Zposition Zrotation Xrotation Yrotation
          JOINT LeftFootToe
          {
            OFFSET 0 0 4
            CHANNELS 6 Xposition Yposition Zposition Zrotation Xrotation Yrotation
            End Site
            {
              OFFSET 0 0 0
            }
          }
        }
      }
    }
  }
  JOINT RightUpLeg
  {
    OFFSET -8 0 0
    CHANNELS 6 Xposition Yposition Zposition Zrotation Xrotation Yrotation
    JOINT RightLeg
    {
      OFFSET 0 -45 -1
      CHANNELS 6 Xposition Yposition Zposition Zrotation Xrotation Yrotation
      JOINT RightFoot
      {
        OFFSET 0 -41 -2
        CHANNELS 6 Xposition Yposition Zposition Zrotation Xrotation Yrotation
        JOINT RightToeBase
        {
          OFFSET 0 -7.5 12.5
          CHANNELS 6 Xposition Yposition Zposition Zrotation Xrotation Yrotation
          JOINT RightFootToe
          {
            OFFSET 0 0 4
            CHANNELS 6 Xposition Yposition Zposition Zrotation Xrotation Yrotation
            End Site
            {
              OFFSET 0 0 0
            }
          }
        }
      }
    }
  }
}
MOTION
Frames:	4
Frame Time:	0.0111111
0 93.5 0 0 0 -0 0 8 0 0 0 -0 0 8 0 0 0 -0 0 8 0 0 0 -0 0 8 0 0 0 -0 0 17 0 0 0 -0 0 10.8 0 0 0 -0 5 17 0 0 0 -0 6.45 0 0 0 0 -0 6.45 0 0 90.0002 0 -0 0 -32.4 -2 0 0 -0 0 -25.65 2 0 0 -0 -0.5 -1.5 2.65 0 0 -0 0 -3.8 3.7 0 0 -0 0 -3 2.7 0 0 -0 -2.84217e-14 -1.9 1.6 0 0 -0 2.84217e-14 -8.3 1.9 0 0 -0 0 -4.5 0 0 0 -0 0 -3.4 0 0 0 -0 -0.25 -2.2 0.4 0 0 -0 2.84217e-14 -8.3 1 0 0 -0 0 -4.65 0 0 0 -0 0 -3.3 0 0 0 -0 -0.5 -2.15 -0.8 0 0 -0 0 -7.75 -0.2 0 0 -0.000434783 0 -3.8 0 -1.40486e-30 0 -0 0 -3.4 0 0 0 -0 -0.75 -1.75 -1.85 0 0 -0 0 -7.15 -1 0 0 -0 0 -3 0 0 0 -0 0 -2.35 0 0 0 -0 -5 17 0 0 0 -0 -6.45 0 0 0 0 -0 -6.45 0 0 -90.0002 0 -0 0 -32.4 -2 0 0 -0 0 -25.65 2 0 0 -0 0.5 -1.5 2.65 0 0 -0 0 -3.8 3.7 0 0 -0 0 -3 2.7 0 0 -0 2.84217e-14 -1.9 1.6 0 0 -0 -2.84217e-14 -8.3 1.9 0 0 -0 0 -4.5 0 0 0 -0 0 -3.4 0 0 0 -0 0.25 -2.2 0.4 0 0 -0 -2.84217e-14 -8.3 1 0 0 -0 0 -4.65 0 0 0 -0 0 -3.3 0 0 0 -0 0.5 -2.15 -0.8 0 0 -0 0 -7.75 -0.2 0 0 -0 -2.84217e-14 -3.8 0 0 0 -0 0 -3.4 0 0 0 -0 0.75 -1.75 -1.85 0 0 -0 0 -7.15 -1 0 0 -0 0 -3 0 0 0 -0 0 -2.35 0 0 0 -0 8 0 0 0 0 -0 0 -45 -1 0 0 -0 0 -41 -2 0 0 -0 0 -7.5 12.5 0 0 -0 0 0 4 0 0 -0 -8 0 0 0 0 -0 0 -45 -1 0 0 -0 0 -41 -2 0 0 -0 0 -7.5 12.5 0 0 -0 0 0 4 0 0 -0 
-6.10362 93.0762 -38.591 0.0270273 -0.0154826 -29.8062 0 8 3.55271e-15 -0.549315 -0.369688 6.05621 0 8 0 0.260882 0.18528 -11.8979 0 8 0 0.12598 0.0996692 -5.96492 0 8 0 0.125274 0.0991671 -5.93274 7.10543e-15 17 3.55271e-15 -0.202325 -0.454477 -2.73905 0 10.8 0 -0.639577 -1.33575 -6.39989 5 17 3.55271e-15 -0.073359 1.57792 0.59349 6.45 0 0 -0.110666 0.110816 7.55127 6.45 -2.84217e-14 0 0.663444 -5.66326 -8.06482 0 -32.4 -2 -0.289413 -3.62996 3.73977 0 -25.65 2 11.5057 -3.908 -9.71632 -0.5 -1.5 2.65 -9.16964 -13.4557 -0.0828011 0 -3.8 3.7 0.113897 23.1692 -0.0158144 0 -3 2.7 1.95415e-15 20.022 -3.38515e-15 -1.77636e-15 -1.9 1.6 0 0 -0 1.77636e-15 -8.3 1.9 -0.56918 0.149192 -0 5.32907e-15 -4.5 0 -21.8582 -1.98785e-15 1.27222e-14 3.55271e-15 -3.4 3.55271e-15 -17.0873 1.59028e-15 -0 -0.25 -2.2 0.4 0 0 -0 -1.77636e-15 -8.3 1 -4.76117 -0.91448 0.0740184 1.77636e-15 -4.65 0 -8.28637 -3.18055e-15 -0 0 -3.3 0 -7.44375 -2.23633e-15 -0 -0.5 -2.15 -0.8 0 0 -0 -1.77636e-15 -7.75 -0.2 -12.7682 -2.96954 -0.000435368 0 -3.8 1.77636e-15 -1.59028e-15 0 -9.54166e-15 0 -3.4 0 -1.59028e-15 7.95139e-16 -3.18055e-15 -0.75 -1.75 -1.85 0 0 -0 3.55271e-15 -7.15 -1 -16.8285 -4.15917 -0.163327 -3.55271e-15 -3 -5.32907e-15 -7.95139e-16 -2.78299e-15 3.18055e-15 0 -2.35 -1.77636e-15 -3.31043e-31 1.98785e-15 9.54166e-15 -5 17 -3.55271e-15 0.254646 1.40557 9.27888 -6.45 0 0 3.00943 -0.800251 -8.32551 -6.45 0 7.10543e-15 -3.78714 -2.62004 6.00946 0 -32.4 -2 2.03101 -4.23086 -9.5228 0 -25.65 2 -16.2364 -0.572315 5.31629 0.5 -1.5 2.65 2.73618 -5.05796 -1.69965 0 -3.8 3.7 -0.0427352 6.70171 -6.40487e-15 0 -3 2.7 4.77083e-15 16.8135 -0 0 -1.9 1.6 1.59028e-15 -7.95139e-16 -0 0 -8.3 1.9 10.1382 -3.55758 0.268274 7.10543e-15 -4.5 -7.10543e-15 0.497842 2.78299e-15 -0 -7.10543e-15 -3.4 0 0.494466 4.37326e-15 -0 0.25 -2.2 0.4 1.59028e-15 -7.95139e-16 -0 0 -8.3 1 11.43 -3.046 0.181706 0 -4.65 -3.55271e-15 2.13813 -1.19271e-15 6.36111e-15 0 -3.3 0 2.07705 0 -1.27222e-14 0.5 -2.15 -0.8 1.59028e-15 -7.95139e-16 -0 0 -7.75 -0.2 13.5648 -1.41392 -0.0904418 -7.10543e-15 -3.8 3.55271e-15 0.440994 -3.97569e-16 -0 0 -3.4 -3.55271e-15 0.438344 1.19271e-15 6.36111e-15 0.75 -1.75 -1.85 1.59028e-15 -7.95139e-16 -0 0 -7.15 -1 14.8636 -0.793456 -0.233735 0 -3 -3.55271e-15 -7.95139e-16 -7.95139e-16 -3.18055e-15 7.10543e-15 -2.35 0 -3.97569e-16 -3.97569e-16 -0 8 -2.84217e-14 0 2.06101 -3.34214 -21.5806 -3.55271e-15 -45 -1 -0.0194862 6.93047 0.16149 0 -41 -2 -3.19444 -4.57563 13.1492 -1.77636e-15 -7.5 12.5 3.10601e-18 1.55301e-18 -3.18055e-15 -1.77636e-15 0 4 0.137455 0.0413805 -7.03167 -8 0 0 -2.6998 1.25417 -17.7473 7.10543e-15 -45 -1 -0.00280862 5.54782 0.486775 7.10543e-15 -41 -2 2.89115 -5.94821 -8.53955 -7.10543e-15 -7.5 12.5 1.94126e-19 2.91188e-19 -0 0 0 4 -1.99698 -0.959176 7.26133 
-6.10409 93.0762 -38.5888 0.027187 -0.0155741 -29.8063 3.55271e-15 8 3.55271e-15 -0.549713 -0.36951 6.05648 -3.55271e-15 8 0 0.260991 0.185189 -11.8976 0 8 7.10543e-15 0.126037 0.0996255 -5.96479 -3.55271e-15 8 0 0.12533 0.0991235 -5.93261 0 17 0 -0.20296 -0.45461 -2.7355 0 10.8 0 -0.63936 -1.33596 -6.39159 5 17 0 -0.0719639 1.58006 0.592304 6.45 -2.84217e-14 -3.55271e-15 -0.111646 0.109429 7.5516 6.45 2.84217e-14 3.55271e-15 0.662949 -5.66394 -8.06465 1.77636e-15 -32.4 -2 -0.289413 -3.62996 3.73978 0 -25.65 2 11.505 -3.90546 -9.71513 -0.5 -1.5 2.65 -9.17045 -13.4552 -0.0852087 -3.55271e-15 -3.8 3.7 0.113897 23.1665 -0.0158185 -3.55271e-15 -3 2.7 1.55659e-15 20.0221 -3.38515e-15 -1.77636e-15 -1.9 1.6 4.77083e-15 -1.59028e-15 -6.36111e-15 0 -8.3 1.9 -0.570945 0.148938 -0 0 -4.5 1.77636e-15 -21.8546 1.98785e-15 3.18055e-15 0 -3.4 0 -17.085 3.18055e-15 6.36111e-15 -0.25 -2.2 0.4 4.77083e-15 -1.59028e-15 -6.36111e-15 -5.32907e-15 -8.3 1 -4.76198 -0.914719 0.0739817 1.77636e-15 -4.65 0 -8.2867 1.59028e-15 6.36111e-15 0 -3.3 0 -7.44402 1.19271e-15 -3.18055e-15 -0.5 -2.15 -0.8 4.77083e-15 -1.59028e-15 -6.36111e-15 -3.55271e-15 -7.75 -0.2 -12.7675 -2.97014 -0.000435368 1.77636e-15 -3.8 1.77636e-15 -7.95139e-16 3.18055e-15 -0 0 -3.4 3.55271e-15 1.59028e-15 3.97569e-15 3.18055e-15 -0.75 -1.75 -1.85 4.77083e-15 -1.59028e-15 -6.36111e-15 0 -7.15 -1 -16.8271 -4.15983 -0.163428 0 -3 1.77636e-15 -7.95139e-16 3.97569e-16 -0 0 -2.35 -1.77636e-15 7.95139e-16 3.18055e-15 6.36111e-15 -5 17 -3.55271e-15 0.254662 1.40556 9.27823 -6.45 0 -3.55271e-15 3.00943 -0.800251 -8.32552 -6.45 0 3.55271e-15 -3.78596 -2.61573 6.01224 0 -32.4 -2 2.02977 -4.23228 -9.52577 0 -25.65 2 -16.2367 -0.575072 5.31417 0.5 -1.5 2.65 2.73659 -5.05803 -1.69792 0 -3.8 3.7 -0.0427356 6.70171 -9.60731e-15 0 -3 2.7 1.65945e-16 16.8135 -3.32259e-15 0 -1.9 1.6 -0 -7.95139e-16 -0 1.42109e-14 -8.3 1.9 10.1384 -3.55757 0.268271 0 -4.5 7.10543e-15 0.496399 1.19271e-15 -0 0 -3.4 0 0.493045 0 -0 0.25 -2.2 0.4 -0 -7.95139e-16 -0 0 -8.3 1 11.4299 -3.04603 0.181716 0 -4.65 -3.55271e-15 2.14258 2.78299e-15 3.18055e-15 0 -3.3 0 2.08124 -7.95139e-16 6.36111e-15 0.5 -2.15 -0.8 -0 -7.95139e-16 -0 0 -7.75 -0.2 13.565 -1.4139 -0.0904406 -7.10543e-15 -3.8 0 0.441702 3.97569e-16 3.18055e-15 0 -3.4 3.55271e-15 0.439043 1.59028e-15 -3.18055e-15 0.75 -1.75 -1.85 -0 -7.95139e-16 -0 0 -7.15 -1 14.8638 -0.79343 -0.23373 -7.10543e-15 -3 -7.10543e-15 3.97569e-16 -1.19271e-15 -0 -7.10543e-15 -2.35 -3.55271e-15 0 0 -6.36111e-15 8 0 3.55271e-15 2.06046 -3.33993 -21.5816 0 -45 -1 -0.0193244 6.92902 0.160182 3.55271e-15 -41 -2 -3.18245 -4.58816 13.1525 0 -7.5 12.5 -7.76503e-19 -4.27076e-18 3.18055e-15 -1.77636e-15 0 4 0.129704 0.0554277 -7.0315 -8 -1.42109e-14 -3.55271e-15 -2.70025 1.25638 -17.7471 0 -45 -1 -0.00280403 5.54574 0.48688 0 -41 -2 2.87933 -5.97316 -8.54061 7.10543e-15 -7.5 12.5 -1.55301e-18 1.55301e-18 -9.54166e-15 0 -1.38778e-17 4 -1.98817 -0.932581 7.26194 
-6.10405 93.0763 -38.5865 0.0274328 -0.0155881 -29.8046 0 8 3.55271e-15 -0.550352 -0.369512 6.05719 0 8 0 0.261044 0.185128 -11.8975 3.55271e-15 8 3.55271e-15 0.126065 0.0995974 -5.96476 -3.55271e-15 8 0 0.125358 0.0990956 -5.93258 0 17 0 -0.203979 -0.453924 -2.73241 0 10.8 3.55271e-15 -0.638832 -1.33488 -6.38438 5 17 0 -0.071581 1.58241 0.590084 6.45 -2.84217e-14 0 -0.111875 0.107968 7.55177 6.45 0 3.55271e-15 0.663445 -5.66236 -8.06391 -1.77636e-15 -32.4 -2 -0.289417 -3.63169 3.74015 0 -25.65 2 11.503 -3.90094 -9.71404 -0.5 -1.5 2.65 -9.16972 -13.4567 -0.0877975 0 -3.8 3.7 0.113897 23.1662 -0.0158185 0 -3 2.7 8.28816e-16 20.0223 3.38516e-15 3.55271e-15 -1.9 1.6 -1.59028e-15 -3.18055e-15 -9.54166e-15 -1.77636e-15 -8.3 1.9 -0.570236 0.14874 -3.18057e-15 -1.77636e-15 -4.5 3.55271e-15 -21.8508 -1.39149e-15 -3.18055e-15 0 -3.4 1.77636e-15 -17.0849 -1.59028e-15 -0 -0.25 -2.2 0.4 -1.59028e-15 -3.18055e-15 -9.54166e-15 0 -8.3 1 -4.76056 -0.914789 0.0739906 1.77636e-15 -4.65 1.77636e-15 -8.28601 -2.38542e-15 -6.36111e-15 -1.77636e-15 -3.3 -1.77636e-15 -7.44339 3.32964e-15 3.18055e-15 -0.5 -2.15 -0.8 -1.59028e-15 -3.18055e-15 -9.54166e-15 -1.77636e-15 -7.75 -0.2 -12.7648 -2.96991 -0.000435368 -1.77636e-15 -3.8 0 2.38542e-15 -7.95139e-16 3.18055e-15 0 -3.4 3.55271e-15 1.59028e-15 -7.95139e-16 -0 -0.75 -1.75 -1.85 -1.59028e-15 -3.18055e-15 -9.54166e-15 0 -7.15 -1 -16.8233 -4.15959 -0.163446 3.55271e-15 -3 -1.77636e-15 -7.95139e-16 -4.37326e-15 -0 0 -2.35 0 -7.95139e-16 -2.38542e-15 -6.36111e-15 -5 17 3.55271e-15 0.254244 1.40628 9.27605 -6.45 -5.68434e-14 0 3.00997 -0.799621 -8.32563 -6.45 2.84217e-14 -3.55271e-15 -3.7847 -2.61113 6.01499 0 -32.4 -2 2.02945 -4.23333 -9.5292 0 -25.65 2 -16.2373 -0.575396 5.31338 0.5 -1.5 2.65 2.73604 -5.05881 -1.69836 0 -3.8 3.7 -0.0427356 6.70046 -6.40486e-15 -1.42109e-14 -3 2.7 -4.47357e-15 16.8137 9.96778e-15 0 -1.9 1.6 3.18055e-15 -7.95139e-16 -0 -1.42109e-14 -8.3 1.9 10.1373 -3.55748 0.268298 0 -4.5 7.10543e-15 0.496127 7.95139e-16 -3.18055e-15 -7.10543e-15 -3.4 -7.10543e-15 0.492777 -1.19271e-15 3.18055e-15 0.25 -2.2 0.4 3.18055e-15 -7.95139e-16 -0 0 -8.3 1 11.429 -3.04531 0.181748 0 -4.65 3.55271e-15 2.14569 -7.95139e-16 3.18055e-15 0 -3.3 3.55271e-15 2.08418 0 -6.36111e-15 0.5 -2.15 -0.8 3.18055e-15 -7.95139e-16 -0 1.42109e-14 -7.75 -0.2 13.5645 -1.41374 -0.0904297 0 -3.8 0 0.442562 3.97569e-16 3.18055e-15 1.42109e-14 -3.4 -7.10543e-15 0.439895 7.95139e-16 -3.18055e-15 0.75 -1.75 -1.85 3.18055e-15 -7.95139e-16 -0 0 -7.15 -1 14.8638 -0.792669 -0.233672 7.10543e-15 -3 3.55271e-15 -3.97569e-16 2.38542e-15 -3.18055e-15 0 -2.35 0 -3.97569e-16 3.97569e-16 -3.18055e-15 8 1.42109e-14 0 2.0599 -3.33784 -21.5829 0 -45 -1 -0.0191443 6.92842 0.158703 0 -41 -2 -3.18114 -4.58904 13.1551 -1.77636e-15 -7.5 12.5 -1.94126e-18 -4.65902e-18 6.36111e-15 -1.77636e-15 0 4 0.129679 0.0554236 -7.0315 -8 0 3.55271e-15 -2.70074 1.25895 -17.7487 -7.10543e-15 -45 -1 -0.00278813 5.54348 0.486913 0 -41 -2 2.87955 -5.97323 -8.54065 0 -7.5 12.5 4.65902e-18 -4.65902e-18 9.54166e-15 0 0 4 -1.98817 -0.932569 7.26194 
